<svg xmlns="http://www.w3.org/2000/svg" width="653" height="644" viewBox="0 0 653 644" version="1.1"><path d="M 323.958 8.750 C 322.745 12.463, 321.358 15.927, 320.876 16.450 C 320.394 16.972, 320 18.216, 320 19.214 C 320 20.211, 319.603 21.809, 319.117 22.764 C 317.602 25.742, 316.173 29.363, 315.079 33 C 313.677 37.661, 309.734 48.864, 306.457 57.500 C 304.996 61.350, 303.575 65.400, 303.300 66.500 C 303.024 67.600, 301.944 70.408, 300.899 72.739 C 299.855 75.071, 299 77.475, 299 78.082 C 299 79.729, 293.815 94.352, 292.842 95.450 C 292.379 95.973, 292 97.216, 292 98.214 C 292 99.211, 291.550 100.921, 291 102.014 C 290.450 103.106, 289.550 104.894, 289 105.986 C 288.450 107.079, 288 108.852, 288 109.927 C 288 111.002, 287.550 112.160, 287 112.500 C 286.450 112.840, 286 114.126, 286 115.359 C 286 116.592, 285.633 118.027, 285.185 118.550 C 284.736 119.072, 283.096 123.325, 281.539 128 C 279.983 132.675, 278.325 136.928, 277.855 137.450 C 277.385 137.973, 277 139.216, 277 140.214 C 277 141.211, 276.603 142.809, 276.117 143.764 C 274.552 146.839, 273.161 150.404, 271.928 154.500 C 271.265 156.700, 270.381 159.400, 269.962 160.500 C 269.544 161.600, 268.652 163.963, 267.980 165.750 C 267.307 167.537, 266.066 169, 265.220 169 C 263.701 169, 255.215 165.286, 235.190 155.855 C 229.520 153.185, 224.458 151, 223.940 151 C 223.423 151, 223 150.550, 223 150 C 223 149.450, 222.190 149, 221.200 149 C 220.210 149, 218.972 148.596, 218.450 148.101 C 217.928 147.607, 213.675 145.485, 209 143.387 C 204.325 141.289, 200.275 139.309, 200 138.987 C 199.725 138.665, 192.750 135.328, 184.500 131.572 C 176.250 127.816, 167.025 123.495, 164 121.970 C 155.198 117.533, 128.003 104.555, 122 101.928 C 118.975 100.604, 113.587 98.078, 110.027 96.316 C 106.467 94.554, 103.457 93.209, 103.338 93.328 C 103.219 93.447, 105.161 97.810, 107.654 103.022 C 110.146 108.235, 112.706 113.625, 113.341 115 C 113.977 116.375, 114.736 117.725, 115.027 118 C 115.319 118.275, 117.081 121.875, 118.943 126 C 120.805 130.125, 124.280 137.704, 126.664 142.842 C 129.049 147.981, 131 152.593, 131 153.092 C 131 153.592, 131.450 154, 132 154 C 132.550 154, 133 154.463, 133 155.028 C 133 155.594, 134.605 159.532, 136.567 163.778 C 141.910 175.344, 142.452 176.456, 143.012 177 C 143.499 177.474, 146.910 184.768, 155.634 204 C 157.755 208.675, 159.830 212.650, 160.245 212.833 C 160.660 213.017, 161 213.619, 161 214.172 C 161 215.176, 166.207 226.452, 174.571 243.560 C 179.082 252.786, 179.987 256.747, 177.750 257.462 C 175.572 258.159, 155.587 265.195, 153.500 266 C 152.400 266.425, 149.475 267.354, 147 268.066 C 144.525 268.778, 142.050 269.648, 141.500 270 C 140.950 270.352, 138.475 271.252, 136 272 C 133.525 272.748, 131.050 273.655, 130.500 274.015 C 129.950 274.375, 125.900 275.891, 121.500 277.383 C 117.100 278.876, 112.600 280.527, 111.500 281.053 C 110.400 281.579, 108.095 282.153, 106.378 282.328 C 104.662 282.503, 97.687 284.725, 90.878 287.266 C 8.759 317.919, 10.945 317.064, 13 317.709 C 13.825 317.968, 15.979 318.843, 17.787 319.654 C 19.595 320.465, 21.845 321.290, 22.787 321.486 C 23.729 321.682, 27.650 323.046, 31.500 324.517 C 35.350 325.988, 39.175 327.350, 40 327.544 C 40.825 327.737, 44.650 329.203, 48.500 330.801 C 52.350 332.400, 60.225 335.316, 66 337.282 C 83.992 343.407, 89.488 345.369, 94 347.274 C 95.375 347.855, 97.400 348.482, 98.500 348.667 C 99.600 348.853, 101.400 349.424, 102.500 349.936 C 104.309 350.779, 115.201 354.660, 127 358.667 C 129.475 359.508, 131.927 360.602, 132.450 361.098 C 132.972 361.594, 134.408 362, 135.641 362 C 136.874 362, 138.160 362.450, 138.500 363 C 138.840 363.550, 139.998 364, 141.073 364 C 142.148 364, 143.809 364.434, 144.764 364.964 C 146.308 365.822, 161.944 371.378, 175.369 375.840 C 178.047 376.730, 180.475 378.075, 180.764 378.828 C 181.292 380.204, 175.155 394.209, 173.750 394.833 C 173.337 395.017, 173 395.627, 173 396.190 C 173 397.206, 172.022 399.355, 161.030 422.500 C 157.895 429.100, 153.344 438.775, 150.915 444 C 148.487 449.225, 146.162 453.650, 145.750 453.833 C 145.338 454.017, 145 454.622, 145 455.179 C 145 456.149, 142.980 460.592, 133.488 480.500 C 121.129 506.422, 117 515.345, 117 516.132 C 117 516.609, 116.550 517, 116 517 C 115.450 517, 115 517.495, 115 518.100 C 115 518.705, 113.148 523.093, 110.885 527.850 C 106.197 537.705, 104.850 541, 105.511 541 C 105.764 541, 111.041 538.606, 117.236 535.680 C 123.431 532.754, 132.325 528.594, 137 526.435 C 141.675 524.276, 145.650 522.170, 145.833 521.755 C 146.017 521.340, 146.564 521, 147.049 521 C 147.534 521, 152.061 518.975, 157.109 516.500 C 162.156 514.025, 166.897 512, 167.643 512 C 168.389 512, 169 511.550, 169 511 C 169 510.450, 169.467 510, 170.037 510 C 170.608 510, 175.671 507.821, 181.287 505.158 C 186.904 502.495, 194.425 499.020, 198 497.436 C 201.575 495.852, 204.650 494.206, 204.833 493.778 C 205.017 493.350, 205.533 493, 205.980 493 C 206.714 493, 216.539 488.418, 243.704 475.408 C 248.766 472.984, 253.147 471, 253.438 471 C 253.730 471, 256.775 469.640, 260.206 467.978 C 263.637 466.316, 266.907 465.134, 267.472 465.351 C 268.037 465.568, 269.332 468.390, 270.350 471.623 C 271.367 474.855, 272.604 478.281, 273.100 479.236 C 273.595 480.191, 274 481.676, 274 482.535 C 274 483.394, 274.900 485.959, 276 488.236 C 277.100 490.513, 278 492.972, 278 493.701 C 278 494.431, 278.461 495.809, 279.024 496.764 C 280.255 498.852, 287.873 520.210, 288.964 524.633 C 289.389 526.356, 290.471 529.237, 291.368 531.036 C 292.266 532.835, 293 535.048, 293 535.954 C 293 536.859, 293.383 538.027, 293.851 538.550 C 294.319 539.072, 296.361 544.450, 298.388 550.500 C 300.415 556.550, 302.507 562.281, 303.037 563.236 C 303.567 564.191, 304 565.852, 304 566.927 C 304 568.002, 304.450 569.160, 305 569.500 C 305.550 569.840, 306 570.907, 306 571.871 C 306 572.835, 306.900 575.487, 308 577.764 C 309.100 580.041, 310 582.735, 310 583.752 C 310 584.768, 310.389 586.027, 310.863 586.550 C 311.338 587.072, 312.934 591.100, 314.410 595.500 C 315.886 599.900, 317.523 604.281, 318.047 605.236 C 318.571 606.191, 319 607.852, 319 608.927 C 319 610.002, 319.450 611.160, 320 611.500 C 320.550 611.840, 321 613.126, 321 614.359 C 321 615.592, 321.385 617.027, 321.855 617.550 C 322.326 618.072, 323.762 621.546, 325.047 625.269 C 326.332 628.993, 327.802 631.899, 328.314 631.729 C 328.825 631.558, 330.979 626.487, 333.100 620.459 C 335.220 614.432, 337.415 608.719, 337.978 607.764 C 338.540 606.809, 339 605.148, 339 604.073 C 339 602.998, 339.450 601.840, 340 601.500 C 340.550 601.160, 341 599.874, 341 598.641 C 341 597.408, 341.367 595.973, 341.815 595.450 C 342.264 594.928, 343.904 590.675, 345.461 586 C 347.017 581.325, 348.675 577.072, 349.145 576.550 C 349.615 576.027, 350 574.768, 350 573.752 C 350 572.735, 350.900 570.041, 352 567.764 C 353.100 565.487, 354 562.835, 354 561.871 C 354 560.907, 354.450 559.840, 355 559.500 C 355.550 559.160, 356 558.069, 356 557.074 C 356 556.080, 356.865 553.069, 357.922 550.383 C 358.979 547.698, 361.032 542.125, 362.484 538 C 363.936 533.875, 365.546 529.719, 366.062 528.764 C 366.578 527.809, 367 526.121, 367 525.014 C 367 523.906, 367.352 523, 367.782 523 C 368.212 523, 369.164 520.863, 369.898 518.250 C 372.025 510.679, 380.221 487.593, 381.152 486.550 C 381.618 486.027, 382 484.592, 382 483.359 C 382 482.126, 382.450 480.840, 383 480.500 C 383.550 480.160, 384 478.810, 384 477.500 C 384 476.190, 384.392 474.876, 384.871 474.580 C 385.350 474.284, 385.997 472.795, 386.309 471.271 C 386.621 469.747, 387.534 467.612, 388.337 466.527 C 389.572 464.861, 390.164 464.733, 392.149 465.706 C 395.745 467.468, 413.086 475.482, 416.750 477.075 C 418.538 477.852, 420 478.828, 420 479.244 C 420 479.660, 420.519 480, 421.153 480 C 422.318 480, 428.045 482.597, 444.546 490.608 C 449.521 493.024, 454.134 495, 454.796 495 C 455.458 495, 456 495.450, 456 496 C 456 496.550, 456.611 497, 457.357 497 C 458.103 497, 462.844 499.025, 467.891 501.500 C 472.939 503.975, 477.466 506, 477.951 506 C 478.436 506, 478.983 506.340, 479.167 506.755 C 479.350 507.170, 483.100 509.162, 487.500 511.181 C 507.104 520.177, 512.708 522.733, 515.750 524.065 C 517.538 524.848, 519 525.828, 519 526.244 C 519 526.660, 519.681 527, 520.514 527 C 521.346 527, 522.809 527.436, 523.764 527.968 C 529.738 531.300, 550.335 540.998, 550.687 540.646 C 551.147 540.186, 549.563 536.548, 541.482 519.500 C 530.909 497.197, 530 495.194, 530 494.190 C 530 493.627, 529.660 493.017, 529.245 492.833 C 528.830 492.650, 526.726 488.675, 524.569 484 C 522.412 479.325, 518.927 471.943, 516.824 467.596 C 514.721 463.249, 513 459.087, 513 458.346 C 513 457.606, 512.550 457, 512 457 C 511.450 457, 511 456.547, 511 455.993 C 511 455.036, 506.355 445.069, 494.459 420.500 C 486.499 404.060, 483 396.331, 483 395.190 C 483 394.627, 482.663 394.017, 482.250 393.833 C 480.887 393.227, 476 382.003, 476 379.478 C 476 377.517, 476.510 377, 478.441 377 C 479.784 377, 481.160 376.550, 481.500 376 C 481.840 375.450, 483.126 375, 484.359 375 C 485.592 375, 487.028 374.615, 487.550 374.145 C 488.073 373.675, 492.325 372.017, 497 370.461 C 501.675 368.904, 505.927 367.264, 506.450 366.815 C 506.972 366.367, 508.408 366, 509.641 366 C 510.874 366, 512.160 365.550, 512.500 365 C 512.840 364.450, 513.998 364, 515.073 364 C 516.148 364, 517.921 363.550, 519.014 363 C 520.106 362.450, 521.894 361.550, 522.986 361 C 524.079 360.450, 525.789 360, 526.786 360 C 527.784 360, 529.028 359.621, 529.550 359.158 C 530.073 358.695, 534.100 357.094, 538.500 355.602 C 542.900 354.109, 547.175 352.602, 548 352.253 C 548.825 351.903, 550.400 351.554, 551.500 351.476 C 552.600 351.399, 554.767 350.810, 556.315 350.168 C 557.863 349.525, 559.438 349, 559.815 349 C 560.192 349, 570.625 345.140, 583 340.423 C 595.375 335.707, 605.950 331.726, 606.500 331.577 C 607.050 331.429, 608.850 330.776, 610.500 330.127 C 612.150 329.478, 614.625 328.539, 616 328.040 C 617.375 327.541, 622.678 325.500, 627.784 323.503 C 632.890 321.506, 638.032 319.686, 639.210 319.459 C 642.470 318.832, 643.682 317.178, 641.417 316.448 C 640.363 316.108, 637.925 315.237, 636 314.513 C 629.557 312.087, 615.528 307.176, 613 306.462 C 611.625 306.073, 610.050 305.420, 609.500 305.010 C 608.950 304.601, 605.733 303.322, 602.351 302.169 C 598.969 301.016, 589.969 297.752, 582.351 294.916 C 574.733 292.079, 564.450 288.454, 559.500 286.860 C 554.550 285.266, 549.600 283.558, 548.500 283.064 C 547.400 282.571, 545.600 281.944, 544.500 281.671 C 542.162 281.091, 520.432 273.383, 517.500 272.094 C 511.377 269.402, 504.506 267, 502.926 267 C 501.931 267, 500.840 266.550, 500.500 266 C 500.160 265.450, 499.121 264.992, 498.191 264.982 C 497.261 264.971, 491.775 263.201, 486 261.048 L 475.500 257.133 475.615 253.816 C 475.679 251.981, 478.637 244.473, 482.242 237 C 488.322 224.395, 491.219 218.304, 502.693 194 C 505.160 188.775, 510.230 178.200, 513.960 170.500 C 520.798 156.385, 523.752 150.146, 532.638 131.055 C 535.312 125.310, 540.497 114.510, 544.160 107.055 C 547.822 99.600, 550.722 93.400, 550.604 93.277 C 550.485 93.155, 546.813 94.797, 542.444 96.928 C 527.322 104.301, 519.187 108, 518.096 108 C 517.493 108, 517 108.450, 517 109 C 517 109.550, 516.606 110, 516.124 110 C 515.642 110, 509.905 112.530, 503.374 115.622 C 483.138 125.202, 472.733 130.153, 466.573 133.133 C 463.313 134.710, 460.088 136, 459.406 136 C 458.724 136, 458.017 136.338, 457.833 136.750 C 457.650 137.162, 452.550 139.835, 446.500 142.689 C 440.450 145.543, 429.425 150.757, 422 154.275 C 414.575 157.794, 405.575 161.966, 402 163.547 C 398.425 165.128, 395.213 166.833, 394.863 167.336 C 394.513 167.840, 392.591 168.308, 390.592 168.376 L 386.958 168.500 382.582 156 C 380.175 149.125, 377.085 140.575, 375.715 137 C 374.345 133.425, 371.111 124.200, 368.528 116.500 C 365.945 108.800, 363.419 102.072, 362.916 101.550 C 362.412 101.027, 362 99.655, 362 98.500 C 362 97.345, 361.601 95.973, 361.114 95.450 C 360.626 94.928, 358.563 89.325, 356.528 83 C 354.494 76.675, 352.418 71.073, 351.915 70.550 C 351.412 70.028, 351 68.655, 351 67.500 C 351 66.345, 350.601 64.972, 350.113 64.450 C 349.625 63.927, 345.822 53.600, 341.663 41.500 C 332.338 14.371, 327.705 2.038, 326.832 2.016 C 326.464 2.007, 325.171 5.037, 323.958 8.750 M 325.525 78.167 C 318.515 97.807, 316.599 103.248, 315.371 107 C 314.562 109.475, 313.496 112.400, 313.004 113.500 C 312.512 114.600, 310.315 120.675, 308.121 127 C 305.928 133.325, 302.281 143.675, 300.017 150 C 294.340 165.859, 288.986 181.010, 288.001 184 C 287.549 185.375, 285.788 190.282, 284.089 194.904 C 282.390 199.526, 281 203.464, 281 203.654 C 281 205.096, 279.628 204.501, 249.179 189.852 C 240.202 185.533, 232.704 182, 232.515 182 C 232.327 182, 224.371 178.240, 214.836 173.646 C 205.301 169.051, 194.575 163.912, 191 162.225 C 187.425 160.539, 178.700 156.424, 171.612 153.080 C 158.359 146.828, 157 146.348, 157 147.914 C 157 148.416, 160.825 156.793, 165.500 166.529 C 170.175 176.265, 174 184.357, 174 184.512 C 174 184.666, 177.647 192.377, 182.104 201.646 C 186.562 210.916, 192.014 222.325, 194.221 227 C 202.591 244.729, 207.303 254.696, 210.596 261.635 C 213.741 268.263, 214.617 271, 213.593 271 C 213.369 271, 208.082 272.823, 201.843 275.052 C 185.531 280.879, 170.892 286.047, 168 286.999 C 166.625 287.451, 161.675 289.240, 157 290.974 C 147.880 294.357, 131.334 300.193, 124 302.615 C 121.525 303.432, 118.600 304.511, 117.500 305.012 C 116.400 305.513, 113.025 306.650, 110 307.540 C 102.809 309.654, 89.962 314.064, 87.787 315.164 C 85.302 316.421, 86.665 318.770, 90.334 319.554 C 92.075 319.926, 93.950 320.583, 94.500 321.013 C 95.050 321.444, 97.750 322.494, 100.500 323.346 C 103.250 324.199, 111.350 326.962, 118.500 329.486 C 125.650 332.011, 133.300 334.709, 135.500 335.483 C 137.700 336.258, 144.675 338.760, 151 341.043 C 157.325 343.327, 166.775 346.704, 172 348.548 C 177.225 350.392, 186.675 353.757, 193 356.027 C 199.325 358.297, 206.525 360.858, 209 361.719 C 216.356 364.276, 216.326 364.070, 210.911 375.084 C 208.210 380.577, 206 385.233, 206 385.432 C 206 385.630, 202.354 393.377, 197.897 402.646 C 188.572 422.041, 182.336 435.124, 176.995 446.500 C 172.512 456.047, 161.437 479.312, 159.427 483.404 C 157.786 486.744, 157.635 488, 158.875 488 C 159.750 488, 172.404 482.126, 196 470.766 C 202.875 467.456, 212.100 463.061, 216.500 460.999 C 225.244 456.902, 237.907 450.871, 259.500 440.520 C 283.172 429.172, 281.733 429.376, 284.348 437 C 285.196 439.475, 287.733 446.675, 289.985 453 C 292.237 459.325, 294.991 467.200, 296.105 470.500 C 297.220 473.800, 298.529 477.400, 299.015 478.500 C 299.501 479.600, 300.572 482.525, 301.395 485 C 302.218 487.475, 303.869 492.200, 305.064 495.500 C 306.259 498.800, 308.735 505.775, 310.566 511 C 312.398 516.225, 315.766 525.675, 318.052 532 C 320.338 538.325, 323.335 546.784, 324.711 550.798 C 326.089 554.818, 327.709 557.930, 328.317 557.728 C 329.336 557.388, 331.741 551.042, 341.476 523 C 343.480 517.225, 345.521 511.600, 346.010 510.500 C 346.499 509.400, 347.564 506.475, 348.376 504 C 349.189 501.525, 351.495 495, 353.500 489.500 C 355.506 484, 357.966 477.025, 358.966 474 C 359.967 470.975, 361.479 466.700, 362.327 464.500 C 363.175 462.300, 365.507 455.775, 367.510 450 C 373.542 432.609, 374.221 431, 375.527 431 C 376.218 431, 383.019 433.964, 390.641 437.587 C 398.264 441.210, 406.525 445.095, 409 446.221 C 411.475 447.347, 420.475 451.633, 429 455.745 C 437.525 459.857, 447.200 464.475, 450.500 466.007 C 461.906 471.302, 477.536 478.720, 487.046 483.351 C 492.296 485.908, 496.909 488, 497.296 488 C 499.374 488, 499.286 487.800, 475.886 439.197 C 472.099 431.330, 469 424.746, 469 424.565 C 469 424.384, 465.453 416.870, 461.119 407.868 C 445.881 376.224, 441 365.829, 441 365.025 C 441 364.071, 441.572 363.826, 454 359.449 C 459.225 357.609, 468.675 354.240, 475 351.961 C 481.325 349.683, 491.675 346.035, 498 343.855 C 504.325 341.675, 510.400 339.488, 511.500 338.996 C 512.600 338.504, 515.525 337.435, 518 336.622 C 520.475 335.809, 528.350 333.047, 535.500 330.486 C 542.650 327.924, 549.625 325.662, 551 325.459 C 555.640 324.774, 568.498 319.267, 568.782 317.843 C 568.957 316.963, 567.637 316.009, 565.282 315.313 C 563.202 314.698, 558.350 313.054, 554.500 311.660 C 534.058 304.257, 495.142 290.364, 491 288.991 C 489.625 288.536, 482.650 286.060, 475.500 283.491 C 468.350 280.921, 461.375 278.449, 460 277.998 C 458.625 277.547, 453.718 275.788, 449.096 274.089 C 444.474 272.390, 440.488 271, 440.238 271 C 439.147 271, 441.439 265.349, 448.575 250.446 C 452.774 241.676, 458.137 230.450, 460.493 225.500 C 462.849 220.550, 467.242 211.325, 470.254 205 C 473.266 198.675, 476.865 191.025, 478.252 188 C 479.639 184.975, 484.424 174.942, 488.887 165.704 C 493.349 156.466, 497 148.479, 497 147.954 C 497 145.851, 496.983 145.858, 465.542 160.977 C 457.819 164.690, 449.250 168.750, 446.500 169.999 C 440.036 172.934, 425.101 180.026, 407.500 188.518 C 383.913 199.899, 374.686 204.062, 373.741 203.747 C 373.243 203.581, 371.583 199.858, 370.051 195.473 C 368.519 191.088, 365.592 182.775, 363.545 177 C 361.499 171.225, 359.449 165.375, 358.990 164 C 358.531 162.625, 357.168 158.800, 355.960 155.500 C 354.752 152.200, 352.270 145.225, 350.445 140 C 348.620 134.775, 345.720 126.675, 344 122 C 340.923 113.637, 334.624 95.897, 332.991 91 C 328.791 78.402, 326.715 74.834, 325.525 78.167" stroke="none" fill="#f3933b" fill-rule="evenodd"/><path d="M 325.525 78.167 C 318.515 97.807, 316.599 103.248, 315.371 107 C 314.562 109.475, 313.496 112.400, 313.004 113.500 C 312.512 114.600, 310.315 120.675, 308.121 127 C 305.928 133.325, 302.281 143.675, 300.017 150 C 294.340 165.859, 288.986 181.010, 288.001 184 C 287.549 185.375, 285.788 190.282, 284.089 194.904 C 282.390 199.526, 281 203.464, 281 203.654 C 281 205.096, 279.628 204.501, 249.179 189.852 C 240.202 185.533, 232.704 182, 232.515 182 C 232.327 182, 224.371 178.240, 214.836 173.646 C 205.301 169.051, 194.575 163.912, 191 162.225 C 187.425 160.539, 178.700 156.424, 171.612 153.080 C 158.359 146.828, 157 146.348, 157 147.914 C 157 148.416, 160.825 156.793, 165.500 166.529 C 170.175 176.265, 174 184.357, 174 184.512 C 174 184.666, 177.647 192.377, 182.104 201.646 C 186.562 210.916, 192.014 222.325, 194.221 227 C 202.591 244.729, 207.303 254.696, 210.596 261.635 C 213.741 268.263, 214.617 271, 213.593 271 C 213.369 271, 208.082 272.823, 201.843 275.052 C 185.531 280.879, 170.892 286.047, 168 286.999 C 166.625 287.451, 161.675 289.240, 157 290.974 C 147.880 294.357, 131.334 300.193, 124 302.615 C 121.525 303.432, 118.600 304.511, 117.500 305.012 C 116.400 305.513, 113.025 306.650, 110 307.540 C 102.809 309.654, 89.962 314.064, 87.787 315.164 C 85.302 316.421, 86.665 318.770, 90.334 319.554 C 92.075 319.926, 93.950 320.583, 94.500 321.013 C 95.050 321.444, 97.750 322.494, 100.500 323.346 C 103.250 324.199, 111.350 326.962, 118.500 329.486 C 125.650 332.011, 133.300 334.709, 135.500 335.483 C 137.700 336.258, 144.675 338.760, 151 341.043 C 157.325 343.327, 166.775 346.704, 172 348.548 C 177.225 350.392, 186.675 353.757, 193 356.027 C 199.325 358.297, 206.525 360.858, 209 361.719 C 216.356 364.276, 216.326 364.070, 210.911 375.084 C 208.210 380.577, 206 385.233, 206 385.432 C 206 385.630, 202.354 393.377, 197.897 402.646 C 188.572 422.041, 182.336 435.124, 176.995 446.500 C 172.512 456.047, 161.437 479.312, 159.427 483.404 C 157.786 486.744, 157.635 488, 158.875 488 C 159.750 488, 172.404 482.126, 196 470.766 C 202.875 467.456, 212.100 463.061, 216.500 460.999 C 225.244 456.902, 237.907 450.871, 259.500 440.520 C 283.172 429.172, 281.733 429.376, 284.348 437 C 285.196 439.475, 287.733 446.675, 289.985 453 C 292.237 459.325, 294.991 467.200, 296.105 470.500 C 297.220 473.800, 298.529 477.400, 299.015 478.500 C 299.501 479.600, 300.572 482.525, 301.395 485 C 302.218 487.475, 303.869 492.200, 305.064 495.500 C 306.259 498.800, 308.735 505.775, 310.566 511 C 312.398 516.225, 315.766 525.675, 318.052 532 C 320.338 538.325, 323.335 546.784, 324.711 550.798 C 326.089 554.818, 327.709 557.930, 328.317 557.728 C 329.336 557.388, 331.741 551.042, 341.476 523 C 343.480 517.225, 345.521 511.600, 346.010 510.500 C 346.499 509.400, 347.564 506.475, 348.376 504 C 349.189 501.525, 351.495 495, 353.500 489.500 C 355.506 484, 357.966 477.025, 358.966 474 C 359.967 470.975, 361.479 466.700, 362.327 464.500 C 363.175 462.300, 365.507 455.775, 367.510 450 C 373.542 432.609, 374.221 431, 375.527 431 C 376.218 431, 383.019 433.964, 390.641 437.587 C 398.264 441.210, 406.525 445.095, 409 446.221 C 411.475 447.347, 420.475 451.633, 429 455.745 C 437.525 459.857, 447.200 464.475, 450.500 466.007 C 461.906 471.302, 477.536 478.720, 487.046 483.351 C 492.296 485.908, 496.909 488, 497.296 488 C 499.374 488, 499.286 487.800, 475.886 439.197 C 472.099 431.330, 469 424.746, 469 424.565 C 469 424.384, 465.453 416.870, 461.119 407.868 C 445.881 376.224, 441 365.829, 441 365.025 C 441 364.071, 441.572 363.826, 454 359.449 C 459.225 357.609, 468.675 354.240, 475 351.961 C 481.325 349.683, 491.675 346.035, 498 343.855 C 504.325 341.675, 510.400 339.488, 511.500 338.996 C 512.600 338.504, 515.525 337.435, 518 336.622 C 520.475 335.809, 528.350 333.047, 535.500 330.486 C 542.650 327.924, 549.625 325.662, 551 325.459 C 555.640 324.774, 568.498 319.267, 568.782 317.843 C 568.957 316.963, 567.637 316.009, 565.282 315.313 C 563.202 314.698, 558.350 313.054, 554.500 311.660 C 534.058 304.257, 495.142 290.364, 491 288.991 C 489.625 288.536, 482.650 286.060, 475.500 283.491 C 468.350 280.921, 461.375 278.449, 460 277.998 C 458.625 277.547, 453.718 275.788, 449.096 274.089 C 444.474 272.390, 440.488 271, 440.238 271 C 439.147 271, 441.439 265.349, 448.575 250.446 C 452.774 241.676, 458.137 230.450, 460.493 225.500 C 462.849 220.550, 467.242 211.325, 470.254 205 C 473.266 198.675, 476.865 191.025, 478.252 188 C 479.639 184.975, 484.424 174.942, 488.887 165.704 C 493.349 156.466, 497 148.479, 497 147.954 C 497 145.851, 496.983 145.858, 465.542 160.977 C 457.819 164.690, 449.250 168.750, 446.500 169.999 C 440.036 172.934, 425.101 180.026, 407.500 188.518 C 383.913 199.899, 374.686 204.062, 373.741 203.747 C 373.243 203.581, 371.583 199.858, 370.051 195.473 C 368.519 191.088, 365.592 182.775, 363.545 177 C 361.499 171.225, 359.449 165.375, 358.990 164 C 358.531 162.625, 357.168 158.800, 355.960 155.500 C 354.752 152.200, 352.270 145.225, 350.445 140 C 348.620 134.775, 345.720 126.675, 344 122 C 340.923 113.637, 334.624 95.897, 332.991 91 C 328.791 78.402, 326.715 74.834, 325.525 78.167" stroke="none" fill="none" fill-rule="evenodd"/></svg>