<svg width="631" height="636" viewBox="0 0 631.000000 636.000000" xmlns="http://www.w3.org/2000/svg" xml:space="preserve" enable-background="new 0 0 640 640" version="1.1">

 <g>
  <title>Layer 1</title>
  <path id="svg_1" d="m631.05475,320.48636c-7.44452,1.71808 -14.24731,4.96027 -21.25018,7.54758c-23.07526,8.5253 -45.91657,17.71802 -69.17231,25.71005c-19.37793,6.65943 -38.64801,13.61252 -57.99462,20.35269c-3.4394,1.19831 -6.77472,2.8729 -10.30771,3.57953c-4.36814,0.87369 -3.95484,3.07578 -2.53763,6.04959c6.21445,13.04059 12.42438,26.08335 18.62588,39.1301c15.62009,32.86157 31.23252,65.72672 46.85385,98.58768c2.57117,5.40875 5.16938,10.80475 7.7594,16.20453c0.70465,1.46911 2.00251,3.01837 0.38196,4.51422c-1.37835,1.27234 -2.80414,0.11847 -4.12939,-0.51355c-20.27118,-9.66651 -40.53372,-19.35102 -60.81247,-29.00159c-30.92377,-14.71643 -61.86591,-29.39432 -92.77774,-44.13583c-3.29764,-1.57254 -5.18097,-1.51447 -6.6116,2.60202c-10.1666,29.25338 -20.58225,58.42022 -30.91803,87.6148c-8.73935,24.68537 -17.48008,49.37024 -26.2107,74.05866c-0.45059,1.27423 -0.80279,2.76501 -2.4133,2.82019c-1.87817,0.06439 -2.25937,-1.51172 -2.7789,-2.98871c-9.99728,-28.42267 -20.01217,-56.83911 -30.06973,-85.24054c-8.89563,-25.12018 -17.81867,-50.23086 -26.79749,-75.32144c-2.04666,-5.71915 -2.28003,-5.69495 -7.6889,-3.11325c-47.10339,22.48297 -94.20987,44.95947 -141.32076,67.42676c-4.04888,1.93097 -8.13032,3.79419 -12.20884,5.66223c-1.19867,0.54907 -2.51901,1.3421 -3.73567,0.29651c-1.52484,-1.31043 -0.47069,-2.67084 0.17862,-4.03052c9.88645,-20.70288 19.76367,-41.41016 29.61631,-62.12912c14.83924,-31.20517 29.65859,-62.41983 44.48,-93.63348c0.41797,-0.88025 0.76332,-1.79499 1.45387,-3.43146c-57.14062,-19.99231 -113.65855,-40.86542 -170.66867,-62.1117c4.19258,-4.48739 9.38545,-4.47085 13.76354,-5.73901c11.20267,-3.24509 21.85468,-7.92453 32.84244,-11.703c15.42088,-5.30301 30.33434,-12.18412 45.91879,-16.8855c24.86972,-7.50244 48.84654,-17.46631 73.55204,-25.35559c4.02828,-1.28638 3.62351,-3.20177 2.13041,-6.31182c-14.83638,-30.9029 -29.58947,-61.84594 -44.30941,-92.80457c-9.71953,-20.4419 -19.35278,-40.92484 -28.99613,-61.40284c-0.4782,-1.01548 -1.2977,-1.99192 -0.90231,-3.34282c1.68558,-1.39616 3.11575,-0.06062 4.5124,0.60546c44.63639,21.28729 89.2548,42.61229 133.88824,63.90576c6.16093,2.93922 12.36182,5.7978 18.5883,8.59555c5.93302,2.66583 6.00858,2.6272 8.25507,-3.6956c7.96542,-22.41887 15.87729,-44.85677 23.83975,-67.27671c9.96335,-28.05385 19.96051,-56.09571 29.93228,-84.14659c1.28015,-3.60103 2.49582,-7.22499 3.89035,-11.17927c0.59345,-0.34093 1.03788,-0.34093 1.93714,-0.00047c1.66052,3.40673 3.11844,6.39993 4.03149,9.55101c6.38312,22.029 15.08237,43.25414 22.47098,64.9341c6.57629,19.29649 13.93139,38.32619 20.68487,57.56419c4.26294,12.14349 8.11799,24.42854 13.2569,36.47642c1.37543,-0.50456 2.3252,-0.76967 3.20258,-1.18693c27.05182,-12.86545 54.10168,-25.73497 81.14084,-38.62699c24.48712,-11.67518 48.95721,-23.38614 73.45104,-35.0471c1.56452,-0.74483 3.36921,-2.20861 4.9433,-0.24856c1.3227,1.64704 0.41779,3.30399 -0.41827,5.07172c-5.95123,12.58271 -11.67792,25.27169 -17.62756,37.8552c-14.85993,31.42837 -29.73053,62.8522 -44.77695,94.19137c-2.50821,5.22418 -4.26193,10.96485 -8.0946,15.40482c-2.55405,2.95875 -2.47626,6.59294 -4.68506,9.91768c12.32177,4.33712 23.91971,8.37518 35.4866,12.50018c23.34216,8.3244 46.88831,16.09824 70.16601,24.55542c19.68476,7.15186 39.29444,14.5636 58.97968,21.74701c0,1.71436 0,3.42871 0,5.57153m-502.29439,-22.34546c-16.05929,6.52842 -33.0959,10.44263 -48.82911,17.38819c0.39701,2.63638 1.92105,2.98996 3.27917,3.61291c4.24493,1.94705 8.70613,3.26328 13.10207,4.7985c21.64392,7.55889 43.19804,15.37478 64.78549,23.09548c13.92506,4.98029 27.85449,9.94843 41.77826,14.93232c2.96733,1.06207 4.95521,2.21936 3.03419,6.15197c-8.46863,17.33643 -16.73031,34.77497 -24.95146,52.2309c-8.92795,18.95673 -18.36964,37.67566 -26.49592,57.00504c-0.76479,1.81915 -2.09357,3.81802 -0.25771,5.5285c1.77444,1.65326 3.77266,0.39264 5.5656,-0.43933c12.21901,-5.66971 24.4465,-11.32175 36.63473,-17.0571c24.08583,-11.33399 48.16475,-22.68308 72.20117,-34.12122c3.42371,-1.62921 4.88761,-0.90512 6.16822,2.73145c11.81027,33.53778 23.71121,67.04452 35.82281,100.47442c2.3952,6.61121 4.18173,13.56904 8.25226,19.96705c3.18176,-2.76886 4.00336,-6.24683 5.15246,-9.4303c13.25217,-36.71451 26.43159,-73.45529 39.60523,-110.19809c1.84796,-5.1543 2.40097,-5.43872 8.03213,-2.77509c35.6356,16.8563 71.25242,33.75223 106.89731,50.58872c2.44135,1.15313 4.82648,2.84515 9.01767,2.14245c-18.1138,-40.68878 -37.80438,-79.99581 -56.20218,-119.95684c3.87363,-3.74009 8.83506,-4.37406 13.27829,-5.98328c25.30729,-9.16571 50.65641,-18.21713 76.03229,-27.19141c10.18244,-3.6011 20.47833,-6.88046 30.70044,-10.371c1.88275,-0.64288 4.09375,-1.45538 4.14081,-3.79672c0.04669,-2.32227 -2.39313,-2.57141 -3.98963,-3.17847c-7.29901,-2.77548 -14.64532,-5.42901 -22.00054,-8.05389c-31.78745,-11.34393 -63.5831,-22.6651 -95.37873,-33.98615c-3.02179,-1.07592 -4.22201,-2.46737 -2.51159,-5.932c6.76608,-13.70527 13.30438,-27.52451 19.80829,-41.35738c10.9707,-23.33308 21.86923,-46.70023 32.72732,-70.08592c0.70349,-1.51517 2.37106,-3.35802 0.47552,-4.9845c-1.68243,-1.44362 -3.43353,-0.13118 -5.08187,0.64607c-34.91987,16.46601 -69.84867,32.91316 -104.76456,49.38761c-10.41104,4.91227 -10.38703,4.94204 -14.37433,-6.33045c-12.30835,-34.79675 -24.55835,-69.61449 -37.02905,-104.35299c-1.37757,-3.83731 -2.08313,-8.23465 -5.55335,-11.46946c-2.81744,3.89948 -3.82592,8.14079 -5.25897,12.15349c-13.13818,36.78821 -26.22763,73.59397 -39.22302,110.43279c-1.2507,3.54553 -2.88272,4.2897 -6.2518,2.67273c-21.74724,-10.4375 -43.53505,-20.7907 -65.32875,-31.13106c-15.3377,-7.27722 -30.70839,-14.48491 -46.05625,-21.74075c-1.52835,-0.72254 -3.18515,-1.70638 -4.64222,-0.41477c-1.59751,1.41608 -0.33701,3.07851 0.30978,4.56273c1.72821,3.96587 3.40083,7.95938 5.25331,11.8671c15.81821,33.36788 31.63062,66.73872 47.57823,100.04478c1.58017,3.30014 0.87828,4.75629 -2.37291,5.90643c-24.13168,8.53669 -48.23527,17.15274 -73.0791,26.01654z" fill="#182739"/>
 </g>
</svg>