<?xml version="1.0" encoding="UTF-8"?>
<!DOCTYPE svg PUBLIC "-//W3C//DTD SVG 1.1//EN" "http://www.w3.org/Graphics/SVG/1.1/DTD/svg11.dtd">
<svg xmlns="http://www.w3.org/2000/svg" version="1.1" width="554px" height="537px" style="shape-rendering:geometricPrecision; text-rendering:geometricPrecision; image-rendering:optimizeQuality; fill-rule:evenodd; clip-rule:evenodd" xmlns:xlink="http://www.w3.org/1999/xlink">
<g><path style="opacity:1" fill="#182739" d="M 251.5,22.5 C 349.995,17.8213 424.828,57.1546 476,140.5C 506.638,198.247 512.972,258.58 495,321.5C 469.167,398 418,449.167 341.5,475C 262.106,496.654 190.106,482.321 125.5,432C 60.4515,374.344 33.6182,302.177 45,215.5C 60.7708,135.414 105.271,77.5809 178.5,42C 201.993,31.8788 226.326,25.3788 251.5,22.5 Z M 263.5,163.5 C 316.011,161.656 351.178,185.322 369,234.5C 379.229,283.179 363.396,320.679 321.5,347C 274.699,368.255 233.866,360.088 199,322.5C 174.188,288.58 170.855,252.58 189,214.5C 205.874,185.78 230.708,168.78 263.5,163.5 Z"/></g>
<g><path style="opacity:1" fill="#f59837" d="M 256.5,43.5 C 332.125,40.4057 393.625,68.0724 441,126.5C 481.967,183.288 493.3,245.621 475,313.5C 457.328,368.836 423.161,410.669 372.5,439C 306.5,471.667 240.5,471.667 174.5,439C 94.0229,391.221 57.5229,320.387 65,226.5C 76.1621,155.963 112.662,103.13 174.5,68C 200.382,54.5353 227.715,46.3687 256.5,43.5 Z M 263.5,163.5 C 230.708,168.78 205.874,185.78 189,214.5C 170.855,252.58 174.188,288.58 199,322.5C 233.866,360.088 274.699,368.255 321.5,347C 363.396,320.679 379.229,283.179 369,234.5C 351.178,185.322 316.011,161.656 263.5,163.5 Z"/></g>
<g><path style="opacity:1" fill="#182739" d="M 259.5,142.5 C 311.693,138.513 351.527,158.513 379,202.5C 396.427,237.406 398.094,273.072 384,309.5C 356.32,362.761 312.486,385.594 252.5,378C 198.677,364.844 166.844,331.011 157,276.5C 152.524,224.285 172.358,184.452 216.5,157C 230.173,149.832 244.506,144.998 259.5,142.5 Z M 263.5,163.5 C 230.708,168.78 205.874,185.78 189,214.5C 170.855,252.58 174.188,288.58 199,322.5C 233.866,360.088 274.699,368.255 321.5,347C 363.396,320.679 379.229,283.179 369,234.5C 351.178,185.322 316.011,161.656 263.5,163.5 Z"/></g>
</svg>
