<svg width="89" height="81" xmlns="http://www.w3.org/2000/svg" xml:space="preserve" version="1.1">

 <g>
  <title>Layer 1</title>
  <g id="svg_1">
   <path id="svg_2" d="m85.3,60.8c-2.2,0 -4,1.8 -4,4l0,5.3c0,1.9 -1.5,3.3 -3.4,3.3l-66.5,0c-1.8,0 -3.4,-1.5 -3.4,-3.3l0,-5.3c0,-2.2 -1.8,-4 -4,-4c-2.2,0 -4,1.8 -4,4l0,5.3c0,6.2 5.1,11.3 11.4,11.3l66.5,0c6.3,0 11.4,-5.1 11.4,-11.3l0,-5.3c0,-2.2 -1.8,-4 -4,-4z"/>
   <path id="svg_3" d="m41.2,61.3l0.5,0.5l0.2,0l0.2,0.2l0.3,0c0.1,0 0.1,0 0.2,0.1c0.2,0.1 0.4,0.1 0.7,0.1l1.3,0c0.3,0 0.5,-0.1 0.7,-0.1c0.1,0 0.3,-0.1 0.4,-0.2c0.1,0 0.1,-0.1 0.2,-0.1l0.2,0l0.4,-0.4l18.3,-15.7c1.6,-1.5 1.8,-4 0.4,-5.6c-1.5,-1.6 -4,-1.8 -5.6,-0.4l-11.5,9.9l0,-45.9l-0.1,-0.2c-0.6,-2.1 -2.4,-3.5 -4.3,-3.5c-2.2,0 -4,1.8 -4,4l0,45.5l-11.5,-9.8c-0.8,-0.7 -1.8,-1.1 -2.9,-1c-1.1,0.1 -2.1,0.6 -2.7,1.4c-0.7,0.8 -1.1,1.8 -1,2.9c0.1,1.1 0.6,2.1 1.4,2.7l18.2,15.6z"/>
  </g>
 </g>
</svg>